<?xml version="1.0" encoding="UTF-8" standalone="no"?>
<svg
   version="1.1"
   viewBox="-5 -10 110 110"
   id="svg2"
   sodipodi:docname="link.svg"
   width="110"
   height="110"
   inkscape:version="1.4.3 (0d15f75042, 2025-12-25)"
   xmlns:inkscape="http://www.inkscape.org/namespaces/inkscape"
   xmlns:sodipodi="http://sodipodi.sourceforge.net/DTD/sodipodi-0.dtd"
   xmlns="http://www.w3.org/2000/svg"
   xmlns:svg="http://www.w3.org/2000/svg">
  <defs
     id="defs2" />
  <sodipodi:namedview
     id="namedview2"
     pagecolor="#ffffff"
     bordercolor="#000000"
     borderopacity="0.25"
     inkscape:showpageshadow="2"
     inkscape:pageopacity="0.0"
     inkscape:pagecheckerboard="0"
     inkscape:deskcolor="#d1d1d1"
     inkscape:zoom="6.4814815"
     inkscape:cx="54.925714"
     inkscape:cy="67.5"
     inkscape:window-width="2194"
     inkscape:window-height="1162"
     inkscape:window-x="0"
     inkscape:window-y="0"
     inkscape:window-maximized="1"
     inkscape:current-layer="svg2" />
  <path
     d="M 38.344,56.258 81.082,13.52 H 62.945 V 5.8833 H 90.3 c 2.1094,0 3.8164,1.7109 3.8164,3.8164 v 27.355 h -7.6367 v -18.137 l -42.738,42.738 z m 47.102,-1.9219 h -7.6367 v 26.793 c 0,2.9375 -2.418,5.3516 -5.3516,5.3516 h -53.586 c -2.9375,0 -5.3516,-2.4141 -5.3516,-5.3516 v -53.586 c 0,-2.9375 2.4141,-5.3516 5.3516,-5.3516 h 26.793 v -7.6367 h -26.793 c -7.1523,0 -12.988,5.8359 -12.988,12.988 v 53.586 c 0,7.1523 5.8398,12.988 12.988,12.988 h 53.586 c 7.1523,0 12.988,-5.8359 12.988,-12.988 l 0.0039,-26.793 z"
     fill-rule="evenodd"
     id="path1" />
</svg>
